<mxfile host="app.diagrams.net" modified="2024-05-27T20:00:37.442Z" agent="Mozilla/5.0 (X11; Linux x86_64) AppleWebKit/537.36 (KHTML, like Gecko) Chrome/125.0.0.0 Safari/537.36" etag="_ZBHrzgrp7FRorZEdRaH" version="24.4.9" type="device">
  <diagram name="Página-1" id="dq9GXbK4IMYLKhdNl-S3">
    <mxGraphModel dx="1434" dy="754" grid="1" gridSize="10" guides="1" tooltips="1" connect="1" arrows="1" fold="1" page="1" pageScale="1" pageWidth="1169" pageHeight="827" math="0" shadow="0">
      <root>
        <mxCell id="0" />
        <mxCell id="1" parent="0" />
        <mxCell id="ULV95EP0VUD4HpzsEm0A-19" value="" style="edgeStyle=orthogonalEdgeStyle;rounded=0;orthogonalLoop=1;jettySize=auto;html=1;" parent="1" source="ULV95EP0VUD4HpzsEm0A-1" target="ULV95EP0VUD4HpzsEm0A-6" edge="1">
          <mxGeometry relative="1" as="geometry" />
        </mxCell>
        <mxCell id="ULV95EP0VUD4HpzsEm0A-1" value="&lt;font style=&quot;font-size: 18px;&quot;&gt;Início&lt;/font&gt;" style="rounded=1;whiteSpace=wrap;html=1;fillColor=#fff2cc;strokeColor=#d6b656;" parent="1" vertex="1">
          <mxGeometry x="208.34" y="110" width="120" height="60" as="geometry" />
        </mxCell>
        <mxCell id="pBshTsRy2oM1xS3pluPk-10" value="" style="edgeStyle=orthogonalEdgeStyle;rounded=0;orthogonalLoop=1;jettySize=auto;html=1;" edge="1" parent="1" source="ULV95EP0VUD4HpzsEm0A-6" target="ULV95EP0VUD4HpzsEm0A-47">
          <mxGeometry relative="1" as="geometry" />
        </mxCell>
        <mxCell id="ULV95EP0VUD4HpzsEm0A-6" value="&lt;div&gt;&lt;span style=&quot;font-size: 16px; background-color: initial;&quot;&gt;contraste, formato (npy e npz),&amp;nbsp;&lt;/span&gt;&lt;span style=&quot;font-size: 16px; background-color: initial;&quot;&gt;fold, gpuid, height, model,&amp;nbsp;&lt;/span&gt;&lt;span style=&quot;font-size: 16px;&quot;&gt;orientation, output, patches,&amp;nbsp;&lt;/span&gt;&lt;span style=&quot;font-size: 16px; background-color: initial;&quot;&gt;save_images, width&lt;/span&gt;&lt;/div&gt;" style="html=1;strokeWidth=2;shape=manualInput;whiteSpace=wrap;rounded=1;size=26;arcSize=11;aspect=fixed;" parent="1" vertex="1">
          <mxGeometry x="160" y="210" width="216.67" height="130" as="geometry" />
        </mxCell>
        <mxCell id="ULV95EP0VUD4HpzsEm0A-25" value="" style="edgeStyle=orthogonalEdgeStyle;rounded=0;orthogonalLoop=1;jettySize=auto;html=1;" parent="1" target="ULV95EP0VUD4HpzsEm0A-14" edge="1">
          <mxGeometry relative="1" as="geometry">
            <mxPoint x="268.3399999999999" y="610" as="sourcePoint" />
          </mxGeometry>
        </mxCell>
        <mxCell id="ULV95EP0VUD4HpzsEm0A-12" value="Carrega&amp;nbsp; imagem" style="rounded=0;whiteSpace=wrap;html=1;fontSize=16;" parent="1" vertex="1">
          <mxGeometry x="208.34" y="560" width="120" height="60" as="geometry" />
        </mxCell>
        <mxCell id="pBshTsRy2oM1xS3pluPk-9" style="edgeStyle=orthogonalEdgeStyle;rounded=0;orthogonalLoop=1;jettySize=auto;html=1;exitX=0.5;exitY=1;exitDx=0;exitDy=0;entryX=0.5;entryY=0;entryDx=0;entryDy=0;" edge="1" parent="1" source="ULV95EP0VUD4HpzsEm0A-17" target="pBshTsRy2oM1xS3pluPk-5">
          <mxGeometry relative="1" as="geometry" />
        </mxCell>
        <mxCell id="ULV95EP0VUD4HpzsEm0A-17" value="Extrai características" style="rounded=0;whiteSpace=wrap;html=1;fontSize=16;" parent="1" vertex="1">
          <mxGeometry x="430" y="900" width="120" height="60" as="geometry" />
        </mxCell>
        <mxCell id="ULV95EP0VUD4HpzsEm0A-33" value="" style="edgeStyle=orthogonalEdgeStyle;rounded=0;orthogonalLoop=1;jettySize=auto;html=1;" parent="1" source="ULV95EP0VUD4HpzsEm0A-14" edge="1">
          <mxGeometry relative="1" as="geometry">
            <mxPoint x="268.3399999999999" y="870" as="targetPoint" />
          </mxGeometry>
        </mxCell>
        <mxCell id="ULV95EP0VUD4HpzsEm0A-48" style="edgeStyle=orthogonalEdgeStyle;rounded=0;orthogonalLoop=1;jettySize=auto;html=1;exitX=0.5;exitY=1;exitDx=0;exitDy=0;" parent="1" source="ULV95EP0VUD4HpzsEm0A-47" target="ULV95EP0VUD4HpzsEm0A-12" edge="1">
          <mxGeometry relative="1" as="geometry" />
        </mxCell>
        <mxCell id="ULV95EP0VUD4HpzsEm0A-47" value="&lt;span style=&quot;font-size: 16px;&quot;&gt;Tem imagem?&lt;/span&gt;" style="rhombus;whiteSpace=wrap;html=1;" parent="1" vertex="1">
          <mxGeometry x="188.34" y="390" width="160" height="120" as="geometry" />
        </mxCell>
        <mxCell id="ULV95EP0VUD4HpzsEm0A-54" value="" style="group" parent="1" vertex="1" connectable="0">
          <mxGeometry x="188.34" y="680" width="361.65999999999997" height="120" as="geometry" />
        </mxCell>
        <mxCell id="ULV95EP0VUD4HpzsEm0A-16" style="edgeStyle=orthogonalEdgeStyle;rounded=0;orthogonalLoop=1;jettySize=auto;html=1;exitX=1;exitY=0.5;exitDx=0;exitDy=0;entryX=0;entryY=0.5;entryDx=0;entryDy=0;" parent="ULV95EP0VUD4HpzsEm0A-54" source="ULV95EP0VUD4HpzsEm0A-14" target="ULV95EP0VUD4HpzsEm0A-15" edge="1">
          <mxGeometry relative="1" as="geometry" />
        </mxCell>
        <mxCell id="ULV95EP0VUD4HpzsEm0A-14" value="&lt;font style=&quot;font-size: 16px;&quot;&gt;Contraste?&lt;/font&gt;" style="rhombus;whiteSpace=wrap;html=1;" parent="ULV95EP0VUD4HpzsEm0A-54" vertex="1">
          <mxGeometry width="160" height="120" as="geometry" />
        </mxCell>
        <mxCell id="ULV95EP0VUD4HpzsEm0A-15" value="Ajusta contraste" style="rounded=0;whiteSpace=wrap;html=1;fontSize=16;" parent="ULV95EP0VUD4HpzsEm0A-54" vertex="1">
          <mxGeometry x="241.66" y="30" width="120" height="60" as="geometry" />
        </mxCell>
        <mxCell id="ULV95EP0VUD4HpzsEm0A-55" style="edgeStyle=orthogonalEdgeStyle;rounded=0;orthogonalLoop=1;jettySize=auto;html=1;exitX=0.5;exitY=1;exitDx=0;exitDy=0;entryX=0.5;entryY=0;entryDx=0;entryDy=0;" parent="1" source="ULV95EP0VUD4HpzsEm0A-15" edge="1">
          <mxGeometry relative="1" as="geometry">
            <mxPoint x="268.3399999999999" y="870" as="targetPoint" />
          </mxGeometry>
        </mxCell>
        <mxCell id="pBshTsRy2oM1xS3pluPk-2" style="edgeStyle=orthogonalEdgeStyle;rounded=0;orthogonalLoop=1;jettySize=auto;html=1;entryX=0;entryY=0.5;entryDx=0;entryDy=0;" edge="1" parent="1" source="pBshTsRy2oM1xS3pluPk-1" target="ULV95EP0VUD4HpzsEm0A-17">
          <mxGeometry relative="1" as="geometry" />
        </mxCell>
        <mxCell id="pBshTsRy2oM1xS3pluPk-7" value="" style="edgeStyle=orthogonalEdgeStyle;rounded=0;orthogonalLoop=1;jettySize=auto;html=1;" edge="1" parent="1" source="pBshTsRy2oM1xS3pluPk-1" target="pBshTsRy2oM1xS3pluPk-5">
          <mxGeometry relative="1" as="geometry" />
        </mxCell>
        <mxCell id="pBshTsRy2oM1xS3pluPk-1" value="&lt;span style=&quot;font-size: 16px;&quot;&gt;é LBP?&lt;/span&gt;" style="rhombus;whiteSpace=wrap;html=1;" vertex="1" parent="1">
          <mxGeometry x="188.34" y="870" width="160" height="120" as="geometry" />
        </mxCell>
        <mxCell id="pBshTsRy2oM1xS3pluPk-3" value="Extrai características" style="rounded=0;whiteSpace=wrap;html=1;fontSize=16;" vertex="1" parent="1">
          <mxGeometry x="430" y="1080" width="120" height="60" as="geometry" />
        </mxCell>
        <mxCell id="pBshTsRy2oM1xS3pluPk-4" style="edgeStyle=orthogonalEdgeStyle;rounded=0;orthogonalLoop=1;jettySize=auto;html=1;entryX=0;entryY=0.5;entryDx=0;entryDy=0;" edge="1" parent="1" source="pBshTsRy2oM1xS3pluPk-5" target="pBshTsRy2oM1xS3pluPk-3">
          <mxGeometry relative="1" as="geometry" />
        </mxCell>
        <mxCell id="pBshTsRy2oM1xS3pluPk-23" value="" style="edgeStyle=orthogonalEdgeStyle;rounded=0;orthogonalLoop=1;jettySize=auto;html=1;" edge="1" parent="1" source="pBshTsRy2oM1xS3pluPk-5" target="pBshTsRy2oM1xS3pluPk-14">
          <mxGeometry relative="1" as="geometry" />
        </mxCell>
        <mxCell id="pBshTsRy2oM1xS3pluPk-5" value="&lt;span style=&quot;font-size: 16px;&quot;&gt;é SURF?&lt;/span&gt;" style="rhombus;whiteSpace=wrap;html=1;" vertex="1" parent="1">
          <mxGeometry x="188" y="1050" width="160" height="120" as="geometry" />
        </mxCell>
        <mxCell id="pBshTsRy2oM1xS3pluPk-12" value="&lt;font style=&quot;font-size: 18px;&quot;&gt;Fim&lt;/font&gt;" style="rounded=1;whiteSpace=wrap;html=1;fillColor=#fff2cc;strokeColor=#d6b656;" vertex="1" parent="1">
          <mxGeometry x="208.33999999999997" y="1380" width="120" height="60" as="geometry" />
        </mxCell>
        <mxCell id="pBshTsRy2oM1xS3pluPk-13" value="" style="edgeStyle=orthogonalEdgeStyle;rounded=0;orthogonalLoop=1;jettySize=auto;html=1;" edge="1" parent="1" source="pBshTsRy2oM1xS3pluPk-14" target="pBshTsRy2oM1xS3pluPk-22">
          <mxGeometry relative="1" as="geometry" />
        </mxCell>
        <mxCell id="pBshTsRy2oM1xS3pluPk-14" value="Invoca a função &lt;font face=&quot;Courier New&quot;&gt;save&lt;/font&gt;" style="rounded=0;whiteSpace=wrap;html=1;fontSize=16;" vertex="1" parent="1">
          <mxGeometry x="208.34" y="1230" width="120" height="60" as="geometry" />
        </mxCell>
        <mxCell id="pBshTsRy2oM1xS3pluPk-15" value="" style="edgeStyle=orthogonalEdgeStyle;rounded=0;orthogonalLoop=1;jettySize=auto;html=1;" edge="1" parent="1" source="pBshTsRy2oM1xS3pluPk-16" target="pBshTsRy2oM1xS3pluPk-18">
          <mxGeometry relative="1" as="geometry" />
        </mxCell>
        <mxCell id="pBshTsRy2oM1xS3pluPk-16" value="Salva imagens com patches" style="rounded=0;whiteSpace=wrap;html=1;fontSize=16;" vertex="1" parent="1">
          <mxGeometry x="535" y="1230" width="120" height="60" as="geometry" />
        </mxCell>
        <mxCell id="pBshTsRy2oM1xS3pluPk-17" value="" style="edgeStyle=orthogonalEdgeStyle;rounded=0;orthogonalLoop=1;jettySize=auto;html=1;" edge="1" parent="1" source="pBshTsRy2oM1xS3pluPk-18" target="pBshTsRy2oM1xS3pluPk-20">
          <mxGeometry relative="1" as="geometry" />
        </mxCell>
        <mxCell id="pBshTsRy2oM1xS3pluPk-18" value="Salva informações do &lt;i&gt;dataset&lt;/i&gt;" style="rounded=0;whiteSpace=wrap;html=1;fontSize=16;" vertex="1" parent="1">
          <mxGeometry x="695" y="1230" width="120" height="60" as="geometry" />
        </mxCell>
        <mxCell id="pBshTsRy2oM1xS3pluPk-19" style="edgeStyle=orthogonalEdgeStyle;rounded=0;orthogonalLoop=1;jettySize=auto;html=1;exitX=0.5;exitY=1;exitDx=0;exitDy=0;" edge="1" parent="1" source="pBshTsRy2oM1xS3pluPk-20" target="pBshTsRy2oM1xS3pluPk-12">
          <mxGeometry relative="1" as="geometry" />
        </mxCell>
        <mxCell id="pBshTsRy2oM1xS3pluPk-20" value="Salva informações das amostras utilizadas" style="rounded=0;whiteSpace=wrap;html=1;fontSize=16;" vertex="1" parent="1">
          <mxGeometry x="850" y="1220" width="151.66" height="80" as="geometry" />
        </mxCell>
        <mxCell id="pBshTsRy2oM1xS3pluPk-21" value="" style="edgeStyle=orthogonalEdgeStyle;rounded=0;orthogonalLoop=1;jettySize=auto;html=1;" edge="1" parent="1" source="pBshTsRy2oM1xS3pluPk-22" target="pBshTsRy2oM1xS3pluPk-16">
          <mxGeometry relative="1" as="geometry" />
        </mxCell>
        <mxCell id="pBshTsRy2oM1xS3pluPk-22" value="Salva características em uma arquivo" style="rounded=0;whiteSpace=wrap;html=1;fontSize=16;" vertex="1" parent="1">
          <mxGeometry x="375" y="1230" width="120" height="60" as="geometry" />
        </mxCell>
      </root>
    </mxGraphModel>
  </diagram>
</mxfile>
